<svg id="Layer_1" data-name="Layer 1" xmlns="http://www.w3.org/2000/svg" viewBox="0 0 483.43 752.56"><defs><style>.cls-1{fill:#231815;}</style></defs><title>iu</title><path class="cls-1" d="M96.41,16.52a373.27,373.27,0,0,1,76.65,71.28c10.93,13.52,21,28.14,27.48,44.37,6.34,15.94,10,35.16,1.42,51-12.4,22.92-42.48,28.42-63.26,40.83-23.53,14.05-35.64,39-34.85,66.19,0.87,29.72,17.39,56,38.74,75.7,25.26,23.31,56.79,37.74,87.09,53.17C289,449.31,346.58,490.26,374.55,552.92a172,172,0,0,1,13.82,48.8c2.34,18.93.91,38,0,57-1.44,30.45-1.11,63.71,16.83,89.89a71.39,71.39,0,0,0,13.86,15.08c2.47,2,6-1.5,3.54-3.54-25.29-20.59-30.29-55-29.77-85.74,0.33-19.28,2.34-38.53,1.67-57.83A172.19,172.19,0,0,0,385.76,568c-21.08-63.05-73.19-108.49-129.49-140.38-30.43-17.24-63.33-30.35-92-50.61-25.48-18-48.77-43.53-54.29-75.25a78.56,78.56,0,0,1,4.52-43.46c5.61-13.37,15.41-23.41,27.84-30.63,20.85-12.11,48.49-17.76,62.33-39.25,17.75-27.56.67-63.86-15.7-87.68-19.25-28-43.87-52.87-70.45-74Q109,19.18,98.93,12.2c-2.64-1.85-5.15,2.49-2.52,4.32h0Z" transform="translate(-95.29 -11.75)"/><path class="cls-1" d="M234.5,24.28C274,59.51,304.88,108.29,302,163c-1.45,27.33-11.53,51.42-28.95,72.33-8,9.57-15.61,19.19-19.39,31.25a69.15,69.15,0,0,0-1.69,33.75c4.86,24.88,23.16,40.93,44.37,52.79,11.64,6.51,23.66,12.25,35,19.24a356.57,356.57,0,0,1,35.94,25.55c22.3,17.85,43.59,37.27,64.19,57,10.42,10,20.47,20.51,28.78,32.36,8.57,12.21,14.82,25.72,20.1,39.63,12.21,32.15,21.71,65.36,34.3,97.36,5.14,13.06,12.67,23.83,24.13,32.1,11.2,8.08,24.17,13.25,36.93,18.29,3,1.18,4.29-3.65,1.33-4.82-11.9-4.69-23.92-9.56-34.48-16.89-12.06-8.38-19.3-19.66-24.33-33.27-10.68-28.89-20-58.27-30.53-87.24-4.82-13.31-10.11-26.57-17.37-38.77a177.2,177.2,0,0,0-24.1-31c-19.54-20.6-41.32-39.63-63-58-21.36-18.13-43.91-34.45-68.74-47.5-22.36-11.75-46.73-24-55.47-49.52a64.32,64.32,0,0,1-1.43-36.87c3.58-13.68,12.35-23.88,21.13-34.56a123.11,123.11,0,0,0,27.73-66.89C312.28,111.17,280,58.21,238,20.75c-2.39-2.14-5.94,1.39-3.54,3.54h0Z" transform="translate(-95.29 -11.75)"/></svg>